<mxfile host="app.diagrams.net" modified="2021-09-15T16:16:06.431Z" agent="5.0 (Windows NT 10.0; Win64; x64) AppleWebKit/537.36 (KHTML, like Gecko) Chrome/93.0.4577.63 Safari/537.36" etag="LsZQQFMhzvN4-zaJSwsL" version="15.2.7" type="github">
  <diagram id="-OPA52gdBElvR5p007l_" name="Page-1">
    <mxGraphModel dx="2146" dy="861" grid="1" gridSize="10" guides="1" tooltips="1" connect="1" arrows="1" fold="1" page="1" pageScale="1" pageWidth="1654" pageHeight="2336" math="0" shadow="0">
      <root>
        <mxCell id="0" />
        <mxCell id="1" parent="0" />
        <mxCell id="R5nsl51rE5XBlnCks4MR-1" value="Консоль" style="swimlane;fontStyle=0;childLayout=stackLayout;horizontal=1;startSize=26;horizontalStack=0;resizeParent=1;resizeParentMax=0;resizeLast=0;collapsible=1;marginBottom=0;" vertex="1" parent="1">
          <mxGeometry x="290" y="30" width="140" height="100" as="geometry" />
        </mxCell>
        <mxCell id="R5nsl51rE5XBlnCks4MR-4" value="Вес&#xa;Процессор&#xa;Видеокарта&#xa;Оперативная память" style="text;strokeColor=none;fillColor=none;align=left;verticalAlign=top;spacingLeft=4;spacingRight=4;overflow=hidden;rotatable=0;points=[[0,0.5],[1,0.5]];portConstraint=eastwest;" vertex="1" parent="R5nsl51rE5XBlnCks4MR-1">
          <mxGeometry y="26" width="140" height="74" as="geometry" />
        </mxCell>
        <mxCell id="R5nsl51rE5XBlnCks4MR-6" value="Завод" style="swimlane;fontStyle=0;childLayout=stackLayout;horizontal=1;startSize=26;horizontalStack=0;resizeParent=1;resizeParentMax=0;resizeLast=0;collapsible=1;marginBottom=0;" vertex="1" parent="1">
          <mxGeometry x="990" y="320" width="140" height="100" as="geometry" />
        </mxCell>
        <mxCell id="R5nsl51rE5XBlnCks4MR-8" value="Отдел сотрудников" style="swimlane;fontStyle=0;childLayout=stackLayout;horizontal=1;startSize=26;horizontalStack=0;resizeParent=1;resizeParentMax=0;resizeLast=0;collapsible=1;marginBottom=0;" vertex="1" parent="1">
          <mxGeometry x="10" y="10" width="130" height="120" as="geometry" />
        </mxCell>
        <mxCell id="R5nsl51rE5XBlnCks4MR-9" value="Менеджеры&#xa;Директор&#xa;Рабочие&#xa;Дизайнеры&#xa;Аналитический отдел&#xa;Отдел рекламы" style="text;strokeColor=none;fillColor=none;align=left;verticalAlign=top;spacingLeft=4;spacingRight=4;overflow=hidden;rotatable=0;points=[[0,0.5],[1,0.5]];portConstraint=eastwest;" vertex="1" parent="R5nsl51rE5XBlnCks4MR-8">
          <mxGeometry y="26" width="130" height="94" as="geometry" />
        </mxCell>
        <mxCell id="R5nsl51rE5XBlnCks4MR-10" value="" style="endArrow=none;html=1;entryX=1.015;entryY=0.589;entryDx=0;entryDy=0;entryPerimeter=0;exitX=0;exitY=0.5;exitDx=0;exitDy=0;" edge="1" parent="1" source="R5nsl51rE5XBlnCks4MR-4" target="R5nsl51rE5XBlnCks4MR-9">
          <mxGeometry width="50" height="50" relative="1" as="geometry">
            <mxPoint x="360" y="210" as="sourcePoint" />
            <mxPoint x="410" y="160" as="targetPoint" />
          </mxGeometry>
        </mxCell>
        <mxCell id="R5nsl51rE5XBlnCks4MR-11" value="Консоль" style="swimlane;fontStyle=0;childLayout=stackLayout;horizontal=1;startSize=26;horizontalStack=0;resizeParent=1;resizeParentMax=0;resizeLast=0;collapsible=1;marginBottom=0;" vertex="1" parent="1">
          <mxGeometry x="687" y="360" width="140" height="100" as="geometry" />
        </mxCell>
        <mxCell id="R5nsl51rE5XBlnCks4MR-12" value="Вес&#xa;Процессор&#xa;Видеокарта&#xa;Оперативная память" style="text;strokeColor=none;fillColor=none;align=left;verticalAlign=top;spacingLeft=4;spacingRight=4;overflow=hidden;rotatable=0;points=[[0,0.5],[1,0.5]];portConstraint=eastwest;" vertex="1" parent="R5nsl51rE5XBlnCks4MR-11">
          <mxGeometry y="26" width="140" height="74" as="geometry" />
        </mxCell>
        <mxCell id="R5nsl51rE5XBlnCks4MR-13" value="Дизайн" style="swimlane;fontStyle=0;childLayout=stackLayout;horizontal=1;startSize=26;horizontalStack=0;resizeParent=1;resizeParentMax=0;resizeLast=0;collapsible=1;marginBottom=0;" vertex="1" parent="1">
          <mxGeometry x="10" y="160" width="140" height="80" as="geometry" />
        </mxCell>
        <mxCell id="R5nsl51rE5XBlnCks4MR-14" value="Цвета&#xa;" style="text;strokeColor=none;fillColor=none;align=left;verticalAlign=top;spacingLeft=4;spacingRight=4;overflow=hidden;rotatable=0;points=[[0,0.5],[1,0.5]];portConstraint=eastwest;" vertex="1" parent="R5nsl51rE5XBlnCks4MR-13">
          <mxGeometry y="26" width="140" height="54" as="geometry" />
        </mxCell>
        <mxCell id="R5nsl51rE5XBlnCks4MR-19" value="" style="endArrow=none;html=1;entryX=-0.017;entryY=0.214;entryDx=0;entryDy=0;entryPerimeter=0;exitX=1;exitY=0.5;exitDx=0;exitDy=0;" edge="1" parent="1" source="R5nsl51rE5XBlnCks4MR-12">
          <mxGeometry width="50" height="50" relative="1" as="geometry">
            <mxPoint x="740" y="380" as="sourcePoint" />
            <mxPoint x="987.6199999999999" y="361.8359999999999" as="targetPoint" />
          </mxGeometry>
        </mxCell>
        <mxCell id="R5nsl51rE5XBlnCks4MR-20" value="Код консоли" style="edgeLabel;html=1;align=center;verticalAlign=middle;resizable=0;points=[];" vertex="1" connectable="0" parent="R5nsl51rE5XBlnCks4MR-19">
          <mxGeometry x="-0.3865" y="1" relative="1" as="geometry">
            <mxPoint as="offset" />
          </mxGeometry>
        </mxCell>
        <mxCell id="R5nsl51rE5XBlnCks4MR-26" value="Сотрудник" style="swimlane;fontStyle=0;childLayout=stackLayout;horizontal=1;startSize=26;horizontalStack=0;resizeParent=1;resizeParentMax=0;resizeLast=0;collapsible=1;marginBottom=0;" vertex="1" parent="1">
          <mxGeometry x="1260" y="330" width="140" height="100" as="geometry" />
        </mxCell>
        <mxCell id="R5nsl51rE5XBlnCks4MR-27" value="" style="endArrow=none;html=1;entryX=0;entryY=0.5;entryDx=0;entryDy=0;exitX=1;exitY=0.5;exitDx=0;exitDy=0;" edge="1" parent="1" source="R5nsl51rE5XBlnCks4MR-6" target="R5nsl51rE5XBlnCks4MR-26">
          <mxGeometry width="50" height="50" relative="1" as="geometry">
            <mxPoint x="1130" y="410" as="sourcePoint" />
            <mxPoint x="1260" y="250" as="targetPoint" />
          </mxGeometry>
        </mxCell>
        <mxCell id="R5nsl51rE5XBlnCks4MR-28" value="Код сотрудника" style="edgeLabel;html=1;align=center;verticalAlign=middle;resizable=0;points=[];" vertex="1" connectable="0" parent="R5nsl51rE5XBlnCks4MR-27">
          <mxGeometry x="-0.1276" y="-1" relative="1" as="geometry">
            <mxPoint x="1" as="offset" />
          </mxGeometry>
        </mxCell>
        <mxCell id="R5nsl51rE5XBlnCks4MR-30" value="" style="endArrow=none;html=1;entryX=0.5;entryY=1;entryDx=0;entryDy=0;exitX=0.5;exitY=0;exitDx=0;exitDy=0;" edge="1" parent="1" source="R5nsl51rE5XBlnCks4MR-31" target="R5nsl51rE5XBlnCks4MR-6">
          <mxGeometry width="50" height="50" relative="1" as="geometry">
            <mxPoint x="1110" y="550" as="sourcePoint" />
            <mxPoint x="1160" y="500" as="targetPoint" />
          </mxGeometry>
        </mxCell>
        <mxCell id="R5nsl51rE5XBlnCks4MR-33" value="Код склада" style="edgeLabel;html=1;align=center;verticalAlign=middle;resizable=0;points=[];" vertex="1" connectable="0" parent="R5nsl51rE5XBlnCks4MR-30">
          <mxGeometry x="-0.1227" y="-2" relative="1" as="geometry">
            <mxPoint as="offset" />
          </mxGeometry>
        </mxCell>
        <mxCell id="R5nsl51rE5XBlnCks4MR-31" value="Склад" style="swimlane;fontStyle=0;childLayout=stackLayout;horizontal=1;startSize=26;horizontalStack=0;resizeParent=1;resizeParentMax=0;resizeLast=0;collapsible=1;marginBottom=0;" vertex="1" parent="1">
          <mxGeometry x="980" y="570" width="140" height="100" as="geometry" />
        </mxCell>
        <mxCell id="R5nsl51rE5XBlnCks4MR-35" value="Поставщик" style="swimlane;fontStyle=0;childLayout=stackLayout;horizontal=1;startSize=26;horizontalStack=0;resizeParent=1;resizeParentMax=0;resizeLast=0;collapsible=1;marginBottom=0;" vertex="1" parent="1">
          <mxGeometry x="1200" y="140" width="140" height="100" as="geometry" />
        </mxCell>
        <mxCell id="R5nsl51rE5XBlnCks4MR-36" value="" style="endArrow=none;html=1;entryX=0;entryY=1;entryDx=0;entryDy=0;exitX=0.75;exitY=0;exitDx=0;exitDy=0;" edge="1" parent="1" source="R5nsl51rE5XBlnCks4MR-6" target="R5nsl51rE5XBlnCks4MR-35">
          <mxGeometry width="50" height="50" relative="1" as="geometry">
            <mxPoint x="1310" y="350" as="sourcePoint" />
            <mxPoint x="1360" y="300" as="targetPoint" />
          </mxGeometry>
        </mxCell>
        <mxCell id="R5nsl51rE5XBlnCks4MR-37" value="Код поставщика" style="edgeLabel;html=1;align=center;verticalAlign=middle;resizable=0;points=[];" vertex="1" connectable="0" parent="R5nsl51rE5XBlnCks4MR-36">
          <mxGeometry x="-0.3882" y="1" relative="1" as="geometry">
            <mxPoint y="-1" as="offset" />
          </mxGeometry>
        </mxCell>
        <mxCell id="R5nsl51rE5XBlnCks4MR-38" value="Комплектующие" style="swimlane;fontStyle=0;childLayout=stackLayout;horizontal=1;startSize=26;horizontalStack=0;resizeParent=1;resizeParentMax=0;resizeLast=0;collapsible=1;marginBottom=0;" vertex="1" parent="1">
          <mxGeometry x="900" y="10" width="140" height="100" as="geometry" />
        </mxCell>
        <mxCell id="R5nsl51rE5XBlnCks4MR-39" value="" style="endArrow=none;html=1;entryX=1;entryY=0.75;entryDx=0;entryDy=0;exitX=0;exitY=0.5;exitDx=0;exitDy=0;" edge="1" parent="1" source="R5nsl51rE5XBlnCks4MR-35" target="R5nsl51rE5XBlnCks4MR-38">
          <mxGeometry width="50" height="50" relative="1" as="geometry">
            <mxPoint x="1310" y="350" as="sourcePoint" />
            <mxPoint x="1360" y="300" as="targetPoint" />
          </mxGeometry>
        </mxCell>
        <mxCell id="R5nsl51rE5XBlnCks4MR-40" value="Код комплектующих" style="edgeLabel;html=1;align=center;verticalAlign=middle;resizable=0;points=[];" vertex="1" connectable="0" parent="R5nsl51rE5XBlnCks4MR-39">
          <mxGeometry x="0.394" y="2" relative="1" as="geometry">
            <mxPoint x="28" as="offset" />
          </mxGeometry>
        </mxCell>
      </root>
    </mxGraphModel>
  </diagram>
</mxfile>
